# xmcd
#
# Track frame offsets:
#	150
#	11655
#	27945
#	39905
#	58642
#	73025
#	89050
#	105710
#	122900
#	134085
#	146975
#	164150
#	181170
#	197565
#
# Disc length: 2928
#
# Revision: 2
# Processed by: cddbd v1.5.1PL0 Copyright (c) Steve Scherf et al.
# Submitted via: CDex 1.51
# Normalized: r1:DSETVAR1
#
DISCID=d40b6e0e
DTITLE=Various Artist - CDX 105 March 1995
DYEAR=1995
DGENRE=Country
TTITLE0=Shenandoah - Darned if I don't (danged if I do)
TTITLE1=Woody Lee - Get over you
TTITLE2=Terry Radigan - Half a million teardrops
TTITLE3=Collin Raye - If I were you
TTITLE4=Daryle Singletary - I'm living up to her low expectations
TTITLE5=Kyle Petty - Oh king Richard
TTITLE6=Billy Ray Cyrus - One last thrill
TTITLE7=Rodney Crowell - Please remember me
TTITLE8=Larry Stewart - Rockin the rock
TTITLE9=Clint Black - Summer's comin'
TTITLE10=Travis Tritt - Tell me I was dreaming
TTITLE11=Blackhawk - That's just about right
TTITLE12=Diamondback - King cotton
TTITLE13=Archer and Park - I' still wanna jump your bones
EXTD=YEAR: 1995
EXTT0=
EXTT1=
EXTT2=
EXTT3=
EXTT4=
EXTT5=
EXTT6=
EXTT7=
EXTT8=
EXTT9=
EXTT10=
EXTT11=
EXTT12=
EXTT13=
PLAYORDER=
